<svg width="256" height="256" viewBox="0 0 256 256" fill="none" xmlns="http://www.w3.org/2000/svg">
<circle cx="128" cy="128" r="128" fill="#584774"/>
<path d="M125.8 202.6C168.215 202.6 202.6 168.215 202.6 125.8C202.6 83.3845 168.215 49 125.8 49C120.387 49 115.104 49.5601 110.007 50.6254C108.839 50.8697 109.248 52.8415 110.442 52.8415V52.8415C142.253 52.8415 168.042 78.6299 168.042 110.441C168.042 142.253 142.253 168.041 110.442 168.041C78.6302 168.041 52.8418 142.253 52.8418 110.441V110.441C52.8418 109.247 50.8698 108.838 50.6255 110.007C49.5601 115.104 49 120.387 49 125.8C49 168.215 83.3845 202.6 125.8 202.6Z" fill="#FF5858"/>
<path d="M104.678 144.998C126.946 144.998 144.998 126.947 144.998 104.679C144.998 82.4104 126.946 64.3585 104.678 64.3585C101.719 64.3585 98.9907 64.359 96.2561 64.8763C95.1938 65.0773 95.533 66.3742 96.6142 66.3742V66.3742C113.315 66.3742 126.854 79.9131 126.854 96.6142C126.854 113.315 113.315 126.854 96.6142 126.854C79.9131 126.854 66.3742 113.315 66.3742 96.6142V96.6142C66.3742 95.5331 65.0771 95.1939 64.8762 96.2562C64.3588 98.9909 64.3582 101.719 64.3582 104.679C64.3582 126.947 82.41 144.998 104.678 144.998Z" fill="#FF5858"/>
</svg>
